<?xml version="1.0" standalone="no"?>
<!DOCTYPE svg PUBLIC "-//W3C//DTD SVG 20010904//EN"
 "http://www.w3.org/TR/2001/REC-SVG-20010904/DTD/svg10.dtd">
<svg version="1.0" xmlns="http://www.w3.org/2000/svg"
 width="449.000000pt" height="449.000000pt" viewBox="0 0 449.000000 449.000000"
 preserveAspectRatio="xMidYMid meet">
<metadata>
Created by potrace 1.11, written by Peter Selinger 2001-2013
</metadata>
<g transform="translate(0.000000,449.000000) scale(0.100000,-0.100000)"
fill="#000000" stroke="none">
<path d="M2263 4308 c-6 -7 -88 -148 -183 -313 -95 -165 -213 -368 -261 -452
-49 -83 -97 -167 -107 -185 -11 -18 -78 -134 -149 -258 -72 -124 -140 -241
-150 -260 -11 -19 -62 -107 -113 -195 -51 -88 -126 -218 -167 -288 -137 -237
-163 -282 -173 -297 -6 -8 -13 -21 -17 -29 -13 -29 -483 -837 -493 -848 -5 -7
-10 -15 -10 -18 0 -2 -82 -146 -181 -317 -100 -172 -191 -329 -201 -348 -11
-19 -29 -50 -40 -67 -11 -18 -18 -34 -16 -34 2 -1 1013 -2 2247 -3 l2243 -1
-4 55 c-4 47 -17 76 -93 205 -48 83 -96 166 -107 185 -11 19 -69 118 -128 220
-59 102 -201 347 -315 545 -115 198 -246 425 -293 505 -46 80 -98 170 -115
200 -17 30 -45 79 -64 108 -18 29 -33 54 -33 56 0 4 -30 57 -140 246 -40 69
-81 140 -92 159 -10 18 -74 128 -142 245 -67 116 -151 261 -186 321 -35 61
-71 124 -80 140 -42 72 -351 606 -387 668 -30 51 -42 65 -50 55z m121 -1096
c58 -101 106 -187 106 -192 0 -5 3 -10 8 -12 4 -1 14 -16 23 -33 9 -16 97
-169 196 -340 99 -170 191 -330 205 -355 14 -25 113 -196 220 -380 107 -184
206 -355 220 -380 14 -25 105 -182 202 -349 97 -167 174 -306 171 -310 -8 -7
-2935 -8 -2935 -1 0 3 23 43 50 89 28 46 50 85 50 86 0 1 29 52 64 113 36 61
76 131 89 154 14 24 113 196 222 383 108 186 207 357 219 380 13 22 61 105
108 185 46 80 212 366 368 635 272 472 300 519 305 513 1 -2 50 -85 109 -186z"/>
<path d="M2204 2063 c-38 -13 -132 -47 -209 -74 -77 -28 -166 -60 -198 -71
l-57 -20 2 -191 3 -191 60 -22 c223 -83 461 -167 469 -167 10 1 515 183 524
189 3 2 5 278 3 355 -1 31 20 21 -266 123 -115 41 -221 79 -236 84 -19 8 -41
4 -95 -15z"/>
</g>
</svg>
